<?xml version="1.0" standalone="no"?><!DOCTYPE svg PUBLIC "-//W3C//DTD SVG 1.1//EN" "http://www.w3.org/Graphics/SVG/1.1/DTD/svg11.dtd"><svg t="1556928833782" class="icon" style="" viewBox="0 0 1113 1024" version="1.1" xmlns="http://www.w3.org/2000/svg" p-id="2001" xmlns:xlink="http://www.w3.org/1999/xlink" width="278.25" height="256"><defs><style type="text/css"></style></defs><path d="M424.455237 644.773599c-66.799513 36.878898-76.541108-20.874848-76.541108-20.874847l-83.499391-194.136084c-32.0081-92.197244 27.83313-41.749695 27.83313-41.749696S343.73916 426.979354 382.705542 452.377086a104.374239 104.374239 0 0 0 83.499391 6.958282l545.877269-252.933571A583.451994 583.451994 0 0 0 556.662607 0.088718C249.106516 0.088718 0 217.187135 0 485.428928a464.813276 464.813276 0 0 0 211.183876 380.270143l-23.310246 132.555283s-11.133252 38.618468 27.83313 20.874848c26.789388-12.176995 94.632643-56.014175 135.338596-82.803563a626.245432 626.245432 0 0 0 205.617251 34.791413c307.55609 0 556.662607-217.098417 556.662606-485.34021a433.153091 433.153091 0 0 0-58.101659-216.054674c-173.957065 104.374239-578.581197 347.914129-630.768317 375.399345z" fill="#ffffff" p-id="2002"></path></svg>